<svg width="35" height="36" viewBox="0 0 35 36" fill="none" xmlns="http://www.w3.org/2000/svg">
<path d="M11.5103 12.3848C10.788 11.8555 10.2764 11.1806 10.0667 10.3C9.65951 8.58453 10.5304 6.86811 12.1545 6.22266C12.4207 6.11699 12.5307 5.97134 12.5899 5.70479C12.9774 3.95695 14.0269 2.82028 15.7103 2.26718C15.8664 2.21577 16.0329 2.07869 16.1147 1.93494C17.2715 -0.112774 19.8596 -0.62494 21.6972 0.831592C21.8307 0.937262 22.0301 1.002 22.2003 1.00771C22.8445 1.0277 23.4906 1.01913 24.1358 1.01532C24.4819 1.01247 24.6841 1.16955 24.7508 1.51797C24.8514 2.04061 24.9455 2.5661 25.0762 3.08112C25.112 3.22202 25.2483 3.38005 25.38 3.44478C25.7891 3.64755 26.2132 3.82653 26.643 3.97884C26.7709 4.02454 26.9656 4.00074 27.0822 3.92934C27.5035 3.67326 27.9041 3.381 28.3151 3.10588C28.712 2.83932 28.9142 2.8555 29.2443 3.18775C30.0088 3.9579 30.7725 4.73091 31.5333 5.50487C31.8766 5.8533 31.8926 6.05131 31.6161 6.47208C31.3509 6.87763 31.0659 7.27175 30.8223 7.68967C30.748 7.81723 30.7264 8.02667 30.7734 8.16661C30.9117 8.58167 31.1139 8.97389 31.2549 9.388C31.3415 9.64218 31.5023 9.73167 31.7364 9.77451C32.2198 9.86399 32.6995 9.96871 33.1828 10.0601C33.5252 10.1248 33.686 10.3219 33.6841 10.676C33.6794 11.8279 33.6785 12.9798 33.6841 14.1317C33.686 14.4849 33.5308 14.6867 33.1904 14.7553C32.6741 14.859 32.1559 14.9552 31.6462 15.0856C31.5136 15.1189 31.3574 15.2389 31.2991 15.3617C31.096 15.7882 30.9145 16.227 30.7603 16.6745C30.7151 16.8039 30.7433 17.002 30.8148 17.121C31.0819 17.5674 31.38 17.9949 31.6687 18.4271C31.869 18.7269 31.8493 19.0011 31.5944 19.2591C30.7979 20.0645 30.0051 20.8746 29.2038 21.6752C28.9104 21.9684 28.7139 21.978 28.3584 21.7428C27.9267 21.4563 27.5073 21.1507 27.0681 20.8784C26.9599 20.8118 26.7756 20.7918 26.6562 20.8356C26.2047 20.9993 25.7609 21.1878 25.3254 21.3925C25.2201 21.442 25.112 21.5772 25.0837 21.6914C24.9634 22.1979 24.8797 22.7119 24.7687 23.2213C24.6662 23.6906 24.5383 23.7924 24.0718 23.7953C23.4502 23.7991 22.8276 23.7839 22.2069 23.8048C22.0348 23.8105 21.8336 23.8724 21.7 23.979C19.8662 25.4318 17.3166 24.9472 16.1335 22.9242C16.0385 22.7624 15.8542 22.6072 15.6784 22.5472C14.0213 21.978 12.9718 20.8556 12.589 19.1192C12.5307 18.8555 12.4263 18.705 12.1602 18.5975C10.9536 18.111 10.2087 17.1933 10.0131 15.9043C9.81186 14.5754 10.2548 13.4501 11.3044 12.5943C11.3589 12.5495 11.4144 12.5067 11.468 12.461C11.4765 12.4543 11.4793 12.441 11.5065 12.3867L11.5103 12.3848ZM30.6088 18.7546C30.2891 18.27 29.9637 17.8321 29.7041 17.3561C29.5998 17.1657 29.5603 16.8649 29.6308 16.664C29.8847 15.9386 30.18 15.2256 30.5007 14.5278C30.5806 14.3526 30.796 14.186 30.9822 14.1279C31.4054 13.9965 31.8474 13.9223 32.2857 13.8509C32.548 13.8081 32.6684 13.7138 32.659 13.4177C32.6374 12.7418 32.6355 12.064 32.659 11.3872C32.6694 11.1035 32.548 11.0111 32.3101 10.9692C31.9067 10.8978 31.506 10.8131 31.1026 10.7427C30.7904 10.6884 30.5741 10.5409 30.4527 10.2238C30.1941 9.54984 29.911 8.88536 29.6327 8.21897C29.5189 7.9467 29.5179 7.69728 29.6929 7.44596C29.9552 7.06707 30.1969 6.67295 30.4631 6.29692C30.5844 6.12556 30.5646 6.01894 30.4189 5.87519C29.9129 5.38016 29.4154 4.87561 28.9255 4.3644C28.7693 4.20161 28.6452 4.15686 28.4477 4.30347C28.0979 4.56241 27.7245 4.78993 27.3709 5.04411C27.117 5.22689 26.8687 5.2526 26.58 5.12693C25.9348 4.84419 25.2869 4.56812 24.6304 4.31394C24.2928 4.18352 24.1329 3.95124 24.0765 3.60662C24.0116 3.20964 23.9242 2.81647 23.8574 2.4195C23.8207 2.19673 23.721 2.08916 23.484 2.09773C23.1088 2.11201 22.7336 2.10725 22.3583 2.09963C22.1524 2.09582 22.0659 2.17198 22.0677 2.39094C22.0743 3.60186 22.0734 4.81373 22.0677 6.02465C22.0677 6.22171 22.1336 6.29692 22.3329 6.29882C22.6132 6.30168 22.8934 6.32833 23.1728 6.3588C26.7145 6.74054 29.1803 10.359 28.2935 13.8699C27.5985 16.6221 25.2511 18.4851 22.4373 18.5118C22.2182 18.5137 22.0602 18.5118 22.064 18.8202C22.079 20.0312 22.0753 21.243 22.0659 22.454C22.064 22.6958 22.1561 22.7605 22.3771 22.7529C22.7402 22.7395 23.106 22.73 23.4681 22.7557C23.7351 22.7748 23.816 22.6405 23.8555 22.4178C23.9298 21.998 24.0098 21.58 24.0878 21.1612C24.1386 20.8927 24.2458 20.6709 24.5195 20.5595C25.2257 20.2711 25.9198 19.9512 26.6374 19.6942C26.8358 19.6228 27.1311 19.6637 27.322 19.7665C27.7339 19.9874 28.1016 20.293 28.5023 20.5386C28.586 20.59 28.7797 20.5776 28.8474 20.5129C29.4333 19.9493 30.0013 19.3667 30.6088 18.7555V18.7546ZM15.6313 21.3773C15.6539 21.0802 15.6708 20.8232 15.6943 20.5662C15.8166 19.1896 17.0411 17.7635 18.3473 17.4675C18.6605 17.3961 18.8787 17.5065 19.0009 17.7959C19.11 18.052 18.9774 18.3309 18.6953 18.4642C18.59 18.5137 18.4752 18.5442 18.3671 18.5899C16.9338 19.1906 16.3103 20.867 17.0006 22.2664C17.6881 23.6611 19.411 24.1675 20.7257 23.3526C20.847 23.2774 21.0163 23.147 21.021 23.0356C21.0502 22.4159 21.0351 21.7933 21.0351 21.264C20.5085 21.4886 19.9988 21.7457 19.4627 21.9199C19.1458 22.0227 18.8843 21.8123 18.8166 21.5267C18.7517 21.2554 18.9219 20.9708 19.2502 20.9003C20.3082 20.6737 21.0041 19.7389 21.0332 18.4709C21.0624 17.1771 21.053 15.8815 21.0361 14.5877C21.0229 13.5834 20.3731 12.956 19.3846 12.9551C17.4022 12.9532 15.4188 12.9532 13.4363 12.9551C11.8658 12.956 10.7448 14.3593 11.0984 15.911C11.2761 16.6907 11.7454 17.2485 12.4743 17.5665C12.6332 17.1067 12.763 16.6764 12.9313 16.2623C13.0479 15.9757 13.3066 15.9072 13.5812 15.9976C13.8577 16.089 13.9442 16.3203 13.9 16.5964C13.8812 16.7116 13.8294 16.8211 13.7871 16.9315C13.4975 17.6883 13.458 18.4594 13.7044 19.2315C14.0232 20.2311 14.6636 20.9432 15.6332 21.3792L15.6313 21.3773ZM15.6398 3.48762C15.6182 3.48381 15.5928 3.47049 15.574 3.47715C15.4978 3.50666 15.4207 3.53617 15.3492 3.57616C14.5273 4.02835 13.9724 4.70806 13.695 5.61054C13.457 6.38545 13.4993 7.1537 13.7928 7.90862C13.8351 8.0181 13.8821 8.13043 13.8981 8.24562C13.9404 8.54645 13.8135 8.75874 13.5219 8.84157C13.2426 8.92058 13.0216 8.79492 12.9182 8.54264C12.7498 8.13139 12.621 7.70395 12.4733 7.27651C12.4357 7.28412 12.4 7.28412 12.3699 7.29745C11.3975 7.73727 10.8567 8.87298 11.0843 9.99537C11.2959 11.0387 12.2467 11.8517 13.2877 11.8546C15.3172 11.8613 17.3467 11.8336 19.3752 11.8679C20.1972 11.8812 21.0285 11.3281 21.0342 10.1991C21.0408 8.92915 21.0492 7.65825 21.0323 6.38831C21.0144 5.10409 20.2903 4.12926 19.252 3.91982C18.9144 3.85128 18.7498 3.5714 18.811 3.30008C18.8824 2.98307 19.1806 2.77554 19.5172 2.89834C20.0345 3.08684 20.5292 3.34197 21.0351 3.56949C21.0351 3.03638 21.0464 2.4452 21.0248 1.85592C21.021 1.74169 20.9129 1.59413 20.8113 1.52749C20.2527 1.16003 19.6461 1.00676 18.9737 1.11243C17.7793 1.29997 16.8699 2.23767 16.7213 3.46287C16.5821 4.6081 17.2762 5.77904 18.3596 6.22552C18.4893 6.27883 18.6614 6.29311 18.7433 6.38831C18.8702 6.53587 19.0339 6.75673 19.0038 6.90999C18.969 7.08611 18.7611 7.26223 18.5862 7.36123C18.4846 7.41835 18.2919 7.34315 18.1517 7.2946C16.5859 6.74625 15.6652 5.3497 15.6379 3.48952L15.6398 3.48762ZM21.0934 12.3963C21.1517 12.4629 21.1856 12.5105 21.227 12.5495C21.8129 13.1112 22.0959 13.7928 22.0724 14.6144C22.0546 15.2303 22.0687 15.8482 22.0687 16.465C22.0687 17.5208 22.1232 17.5665 23.1709 17.3942C25.9856 16.9306 27.811 14.3164 27.3126 11.4662C26.8997 9.10336 24.732 7.31363 22.3856 7.38599C22.1449 7.3936 22.0583 7.46405 22.063 7.71442C22.0771 8.39033 22.0724 9.06623 22.0659 9.74309C22.0621 10.1096 22.0734 10.4809 22.0188 10.8417C21.9238 11.4738 21.5684 11.9726 21.0906 12.3963H21.0934Z" fill="black"/>
<path d="M24.3922 29.6907C25.0016 29.447 25.5997 29.2443 26.1678 28.9739C27.9057 28.1457 29.6342 27.2965 31.3609 26.4435C31.9524 26.1513 32.543 25.9418 33.2173 26.0951C34.3261 26.3464 34.9017 27.3546 34.5499 28.4494C34.3214 29.1614 33.8155 29.6555 33.2672 30.1077C31.3299 31.7051 29.1941 32.9951 26.97 34.1241C25.833 34.701 24.6621 35.257 23.4461 35.614C21.8276 36.09 20.1339 36.0366 18.4542 35.9234C15.536 35.7263 12.7044 34.9999 9.83412 34.5078C8.67079 34.3078 7.49148 34.2003 6.32063 34.048C6.08175 34.0175 5.95385 34.0956 5.84758 34.3412C5.53441 35.0647 4.98425 35.4769 4.17735 35.4788C3.00462 35.4816 1.83094 35.4845 0.658211 35.4807C0.189869 35.4788 0.00178063 35.2874 0.00178063 34.8038C-0.0010407 30.9321 -0.00010026 27.0604 0.00178063 23.1897C0.00178063 22.7536 0.166358 22.508 0.549119 22.5042C1.83847 22.4928 3.12876 22.489 4.41623 22.5404C5.07454 22.5671 5.55416 22.9736 5.81373 23.5838C5.93128 23.8618 6.09398 23.9141 6.35448 23.8884C7.98521 23.7237 9.615 23.5514 11.2476 23.4105C12.6037 23.2934 13.8837 23.5952 15.0677 24.2711C16.2113 24.9242 17.337 25.6077 18.4787 26.2646C19.1774 26.6663 19.9411 26.8224 20.7414 26.8158C21.2342 26.8119 21.727 26.8062 22.2198 26.8196C23.4235 26.8529 24.3903 27.8629 24.3941 29.0786C24.3941 29.2652 24.3941 29.4518 24.3941 29.6907H24.3922ZM21.1025 34.8905C22.4991 34.9523 24.2756 34.3973 25.9392 33.4577C27.5756 32.5334 29.2054 31.5928 30.8041 30.6046C31.5302 30.1553 32.1969 29.5974 32.8515 29.0424C33.1289 28.8073 33.3612 28.4779 33.5154 28.1438C33.7553 27.6221 33.4289 27.1727 32.8609 27.1309C32.3991 27.0966 32.022 27.3041 31.6393 27.5145C29.2063 28.8539 26.6991 30.0249 24.0772 30.9369C22.8856 31.3519 21.6677 31.6851 20.401 31.5938C19.3542 31.5185 18.3075 31.3643 17.2768 31.1615C16.2771 30.9645 15.3009 30.6513 14.416 30.1144C14.1216 29.9354 14.0426 29.6089 14.1997 29.3499C14.3539 29.0957 14.6342 29.032 14.9398 29.1881C16.8875 30.1848 18.9724 30.5542 21.1298 30.498C21.6743 30.4837 22.2367 30.3057 22.7483 30.0963C23.2514 29.8907 23.4254 29.3547 23.2985 28.8063C23.18 28.297 22.737 27.9277 22.2094 27.9134C21.8464 27.9029 21.4825 27.9039 21.1185 27.9124C19.7962 27.9419 18.5699 27.624 17.4357 26.9243C16.4953 26.3445 15.5454 25.7771 14.5862 25.2288C13.7153 24.7319 12.7796 24.4291 11.7667 24.4929C10.704 24.5596 9.64321 24.6548 8.58145 24.7423C7.88176 24.8004 7.18207 24.8642 6.48332 24.9327C6.24633 24.9565 5.99993 24.9346 6.00275 25.3269C6.0178 27.7611 6.01216 30.1943 6.00746 32.6286C6.00746 32.8475 6.06765 32.9437 6.299 32.9627C6.9874 33.0198 7.67957 33.0598 8.35857 33.1788C10.7322 33.5948 13.0984 34.0527 15.4711 34.4735C17.1574 34.7724 18.8558 34.9466 21.1053 34.8886L21.1025 34.8905ZM1.08141 29.0044C1.08141 30.6903 1.08799 32.3763 1.07577 34.0622C1.07389 34.3602 1.16605 34.4478 1.45571 34.4421C2.31151 34.4249 3.16826 34.4411 4.02406 34.4335C4.61842 34.4288 4.92313 34.1232 4.92407 33.5406C4.92595 30.5132 4.92595 27.485 4.92407 24.4577C4.92407 23.8779 4.62877 23.5781 4.06168 23.5752C3.20587 23.5714 2.34913 23.5876 1.49333 23.5666C1.17451 23.559 1.07107 23.6495 1.07389 23.9817C1.08893 25.6553 1.08141 27.3298 1.08141 29.0044Z" fill="black"/>
<path d="M18.0834 13.4512C18.4145 13.4569 18.674 13.6911 18.6759 13.9843C18.6778 14.2661 18.4521 14.4869 18.1267 14.5231C17.0311 14.644 16.5599 15.5341 17.0696 16.5232C17.2474 16.8669 17.1919 17.1706 16.9229 17.3267C16.6681 17.4752 16.3568 17.3857 16.1706 17.0849C15.6891 16.3062 15.6486 15.4951 16.0803 14.6887C16.5054 13.8938 17.1947 13.4988 18.0834 13.4521V13.4512Z" fill="black"/>
<path d="M18.0359 11.376C17.1622 11.2884 16.4719 10.899 16.06 10.0956C15.6565 9.30923 15.6951 8.52289 16.1493 7.76512C16.3525 7.42716 16.6421 7.33197 16.9167 7.49095C17.1895 7.64802 17.2713 7.96123 17.0672 8.28585C16.4879 9.20927 17.181 10.3031 18.112 10.2926C18.4544 10.2888 18.6876 10.5601 18.6735 10.8514C18.6584 11.158 18.3829 11.3846 18.034 11.376H18.0359Z" fill="black"/>
<path d="M2.99218 33.8446C2.16365 33.8408 1.48653 33.1592 1.49124 32.3338C1.49594 31.5218 2.20597 30.8097 3.00723 30.8145C3.81695 30.8192 4.49878 31.5218 4.4969 32.3491C4.49501 33.1925 3.83482 33.8484 2.99312 33.8446H2.99218ZM2.57181 32.2853C2.56522 32.569 2.78152 32.8108 3.00629 32.787C3.25269 32.7613 3.41162 32.608 3.43701 32.3538C3.46053 32.1158 3.24234 31.9035 2.99595 31.9121C2.73168 31.9207 2.6019 32.0768 2.57181 32.2853Z" fill="black"/>
</svg>
