<svg width="33" height="36" viewBox="0 0 33 36" fill="none" xmlns="http://www.w3.org/2000/svg">
<path d="M1.89593 36.0002C1.49247 35.7618 1.02409 35.5918 0.698538 35.2717C-0.281826 34.3056 -0.215976 32.7977 0.806125 31.7978C2.54425 30.0975 4.29166 28.4066 6.03721 26.7138C6.13645 26.6181 6.26166 26.5505 6.29969 26.5232C5.85634 26.0285 5.48998 25.574 5.07725 25.1666C3.66003 23.7705 2.2187 22.3988 0.800561 21.0036C-0.534107 19.691 -0.0991116 17.5204 1.62325 16.9242C2.60083 16.5862 3.45877 16.8444 4.19798 17.5682C5.52801 18.8705 6.86639 20.1642 8.20105 21.4618C8.72602 21.9725 9.25191 22.4823 9.80656 23.0203C9.93641 22.9058 10.0588 22.8062 10.172 22.6973C11.9667 20.9548 13.7521 19.2028 15.557 17.4715C16.8602 16.221 18.9498 16.742 19.4961 18.4499C19.8059 19.4178 19.5749 20.2816 18.8552 20.9867C17.1764 22.6316 15.4865 24.2652 13.8004 25.9017C13.6343 26.0632 13.4618 26.2172 13.2754 26.3918C14.1751 27.2678 15.0404 28.1128 15.9067 28.9549C16.824 29.8469 17.7033 30.7857 18.6716 31.6176C20.2038 32.9339 19.8727 35.3618 17.7942 36.0002H16.683C16.133 35.82 15.6887 35.4867 15.2751 35.0792C13.5917 33.423 11.8925 31.7828 10.1989 30.137C10.0839 30.0252 9.96609 29.9154 9.82974 29.7858C9.70824 29.8966 9.60436 29.9858 9.50605 30.0806C7.81986 31.718 6.12996 33.3498 4.45304 34.9966C4.00784 35.4341 3.53853 35.8134 2.93751 36.0002H1.89593ZM2.49974 34.7412C2.83271 34.7675 3.12023 34.5412 3.39384 34.2746C5.33695 32.3837 7.28191 30.4947 9.22594 28.6057C9.68784 28.1569 9.94846 28.155 10.4039 28.5972C11.6393 29.7971 12.8738 30.9979 14.1092 32.1969C14.8772 32.9423 15.6442 33.6897 16.4177 34.4295C16.7832 34.7788 17.221 34.8266 17.6754 34.6558C18.1076 34.4933 18.3265 34.1478 18.3664 33.6897C18.4035 33.2578 18.2087 32.9329 17.9082 32.6419C15.9688 30.7641 14.035 28.8808 12.1021 26.9964C11.6467 26.5533 11.6467 26.2575 12.0975 25.8181C13.1298 24.8107 14.1658 23.8061 15.2 22.7997C16.1339 21.8908 17.0661 20.9801 18.0019 20.0732C18.3571 19.7286 18.4471 19.3061 18.3163 18.8498C18.1856 18.3945 17.8498 18.1391 17.3898 18.0555C16.9613 17.9776 16.6311 18.1654 16.3333 18.4545C14.3735 20.3614 12.411 22.2654 10.4502 24.1714C9.94011 24.6671 9.70082 24.669 9.19626 24.1789C7.25222 22.2889 5.30912 20.399 3.36416 18.5099C3.25657 18.4048 3.14434 18.2996 3.0182 18.2189C2.64442 17.9795 2.25117 17.9729 1.86718 18.186C1.4832 18.3992 1.2875 18.7334 1.27266 19.1859C1.25782 19.6291 1.4832 19.9314 1.77722 20.2159C3.69992 22.0777 5.61891 23.9423 7.53883 25.8069C7.99052 26.2453 7.99237 26.5599 7.54903 26.9917C6.49075 28.0226 5.43062 29.0526 4.37049 30.0816C3.46062 30.9651 2.54704 31.8448 1.64273 32.7339C1.26153 33.1085 1.16507 33.6005 1.35428 34.0521C1.53978 34.4952 1.92654 34.744 2.49974 34.7412Z" fill="black"/>
<path d="M24.306 33.5805C24.306 32.1722 24.2996 30.8259 24.3116 29.4804C24.3144 29.18 24.3496 28.8711 24.4285 28.5819C24.793 27.2563 25.9514 26.3775 27.3408 26.3653C28.5326 26.3549 29.7245 26.3624 30.9163 26.3624C31.0545 26.3624 31.1927 26.3624 31.3717 26.3624C31.3819 26.2188 31.3995 26.0958 31.3995 25.9728C31.4005 18.3604 31.3921 10.7471 31.4116 3.13467C31.4144 2.17608 30.7642 1.22594 29.4407 1.22875C21.851 1.24002 14.2612 1.23439 6.67062 1.23439C6.49718 1.23439 6.32373 1.23345 6.15029 1.23439C4.93898 1.24471 4.21276 1.97985 4.21183 3.21541C4.20905 6.82257 4.2109 10.4297 4.20997 14.0369C4.20997 14.1777 4.21461 14.3186 4.20348 14.4584C4.17565 14.7993 3.90482 15.0481 3.58113 15.0368C3.26856 15.0255 3.01907 14.7814 2.9931 14.4566C2.9866 14.3749 2.99031 14.2923 2.99031 14.2106C2.99031 10.4983 2.98938 6.78502 2.99031 3.0727C2.99031 1.29635 4.2749 0.000704156 6.03528 0.000704156C13.8912 -0.000234719 21.7471 -0.000234719 29.603 0.000704156C31.3467 0.000704156 32.66 1.31325 32.6609 3.07646C32.6656 10.994 32.6656 18.9106 32.6498 26.8281C32.6498 27.0769 32.5172 27.3858 32.3437 27.5633C30.0667 29.8954 27.7702 32.2088 25.483 34.5307C25.2808 34.7353 25.0638 34.8292 24.7754 34.8255C23.885 34.8133 22.9936 34.8217 22.1023 34.8208C21.6348 34.8208 21.3343 34.5738 21.3362 34.1983C21.339 33.8227 21.6311 33.5843 22.1079 33.5815C22.6978 33.5768 23.2877 33.5805 23.8785 33.5805C24.0037 33.5805 24.128 33.5805 24.3051 33.5805H24.306ZM25.5795 32.4914C27.1739 30.8841 28.7775 29.2654 30.3849 27.6449C29.4193 27.6449 28.4278 27.6431 27.4363 27.6449C26.2547 27.6468 25.5711 28.336 25.5619 29.5415C25.5554 30.4428 25.56 31.3451 25.5619 32.2464C25.5619 32.3459 25.5758 32.4454 25.5795 32.4905V32.4914Z" fill="black"/>
<path d="M19.5879 3.58683C22.4687 3.58683 25.3495 3.58683 28.2312 3.58683C28.3472 3.58683 28.464 3.57932 28.5772 3.59716C28.8712 3.64316 29.1198 3.91731 29.104 4.20649C29.0873 4.5135 28.938 4.74352 28.6226 4.813C28.477 4.84492 28.3249 4.85431 28.1756 4.85431C22.4604 4.85619 16.7442 4.85619 11.029 4.85431C10.8796 4.85431 10.7266 4.84586 10.581 4.81488C10.2768 4.7501 10.0681 4.475 10.0838 4.18583C10.1005 3.87976 10.3491 3.62157 10.6672 3.59058C10.7822 3.57932 10.8982 3.58589 11.0141 3.58589C13.8717 3.58589 16.7294 3.58589 19.5879 3.58589V3.58683Z" fill="black"/>
<path d="M17.5181 8.45641C15.345 8.45641 13.171 8.45641 10.9978 8.45641C10.4098 8.45641 10.0954 8.23953 10.0824 7.8283C10.0694 7.40768 10.3959 7.17578 11.0025 7.17578C15.3497 7.17578 19.6959 7.17578 24.0431 7.17578C24.6376 7.17578 24.9446 7.38609 24.9548 7.79919C24.9659 8.22638 24.646 8.45735 24.0375 8.45735C21.8644 8.45735 19.6903 8.45735 17.5172 8.45735L17.5181 8.45641Z" fill="black"/>
<path d="M15.439 12.0472C13.9021 12.0472 12.3653 12.05 10.8293 12.0453C10.2385 12.0435 9.887 11.5402 10.1903 11.1055C10.3053 10.9403 10.5557 10.8511 10.7616 10.7807C10.9072 10.7309 11.0816 10.7685 11.2439 10.7685C14.109 10.7685 16.9749 10.7685 19.84 10.7703C20.0004 10.7703 20.1655 10.7741 20.3204 10.8107C20.6422 10.8868 20.8101 11.1262 20.7971 11.4473C20.7851 11.7487 20.5708 11.9899 20.2573 12.0369C20.133 12.0557 20.0041 12.0472 19.8771 12.0472C18.3977 12.0472 16.9193 12.0472 15.4399 12.0472H15.439Z" fill="black"/>
<path d="M30.2993 16.8121C30.2993 18.1585 30.3011 19.5048 30.2984 20.8502C30.2974 21.3056 30.0962 21.576 29.7474 21.6145C29.343 21.6595 29.0509 21.3948 29.037 20.945C29.0231 20.4775 29.0323 20.009 29.0323 19.5405C29.0323 17.352 29.0323 15.1625 29.0323 12.974C29.0323 12.8688 29.0277 12.7627 29.0351 12.6576C29.0611 12.2633 29.3124 11.9891 29.6528 11.9807C30.0043 11.9722 30.2882 12.2557 30.2937 12.667C30.3058 13.5448 30.2984 14.4227 30.2984 15.3005C30.2984 15.8038 30.2984 16.307 30.2984 16.8102L30.2993 16.8121Z" fill="black"/>
<path d="M30.2962 24.0412C30.2962 24.228 30.3092 24.4158 30.2934 24.6007C30.2619 24.9678 29.9966 25.2317 29.6738 25.2363C29.3529 25.241 29.0635 24.9782 29.044 24.6148C29.0218 24.2073 29.0218 23.797 29.044 23.3905C29.0644 23.0253 29.351 22.7699 29.6766 22.7765C30.004 22.7821 30.2646 23.0403 30.2934 23.4112C30.3101 23.6196 30.2962 23.8308 30.2962 24.0412Z" fill="black"/>
<path d="M7.74543 12.0431C7.53767 12.0431 7.32991 12.0572 7.12401 12.0403C6.79938 12.0131 6.55916 11.7614 6.5369 11.4554C6.51464 11.1418 6.70663 10.8413 7.04146 10.8104C7.50799 10.7672 7.9838 10.7681 8.45033 10.8104C8.77866 10.8395 8.97993 11.1512 8.95581 11.4563C8.93077 11.769 8.69797 12.0121 8.36778 12.0403C8.16188 12.0581 7.95319 12.0431 7.74636 12.044L7.74543 12.0431Z" fill="black"/>
<path d="M7.74876 8.44805C7.54192 8.44805 7.33232 8.46776 7.12734 8.44335C6.76098 8.40017 6.52354 8.12414 6.53559 7.7899C6.54765 7.4566 6.80642 7.19559 7.17278 7.18057C7.55213 7.16461 7.93333 7.16554 8.31268 7.18057C8.68275 7.19559 8.94059 7.45002 8.95822 7.78426C8.97491 8.12414 8.71521 8.41237 8.33586 8.44899C8.14202 8.46776 7.94446 8.4518 7.74876 8.4518C7.74876 8.45086 7.74876 8.44993 7.74876 8.44805Z" fill="black"/>
<path d="M7.74178 4.87013C7.51269 4.85511 7.28082 4.85886 7.05543 4.82037C6.7169 4.7631 6.52027 4.50585 6.53604 4.18663C6.55088 3.8768 6.78924 3.60828 7.10923 3.59514C7.53402 3.57636 7.9616 3.57636 8.38639 3.59514C8.7073 3.60922 8.94475 3.87868 8.95773 4.19038C8.96979 4.48613 8.76759 4.74526 8.4643 4.81943C8.41978 4.8307 8.37433 4.84478 8.32888 4.84572C8.13318 4.84854 7.93748 4.84666 7.74271 4.84666C7.74271 4.85417 7.74271 4.86262 7.74271 4.87013H7.74178Z" fill="black"/>
</svg>
