<svg width="320" height="369" viewBox="0 0 320 369" fill="none" xmlns="http://www.w3.org/2000/svg">
<g clip-path="url(#clip0_1350_6760)">
<path d="M319.64 184.35C319.64 237.49 319.64 290.63 319.64 343.77C319.64 359.1 310.37 368.45 294.96 368.46C204.9 368.49 114.83 368.49 24.77 368.46C9.3 368.46 0.07 359.16 0.07 343.82C0.06 261.36 0.08 178.9 0 96.45C0 93.18 0.97 90.86 3.27 88.57C31.83 60.14 60.32 31.65 88.75 3.11C90.95 0.9 93.24 0 96.34 0C162.58 0.07 228.82 0.04 295.05 0.06C310.07 0.06 319.63 9.59 319.63 24.56C319.63 77.82 319.63 131.09 319.63 184.35H319.64ZM9.04 98.45V102.54C9.04 182.87 9.04 263.21 9.04 343.54C9.04 354.06 14.37 359.34 24.95 359.34C114.89 359.34 204.83 359.34 294.77 359.34C305.3 359.34 310.63 354.03 310.63 343.48C310.63 237.32 310.63 131.17 310.63 25.01C310.63 14.56 305.21 9.17 294.66 9.17C230.54 9.16 166.43 9.17 102.31 9.17C101 9.17 99.69 9.31 98.2 9.39C98.2 11.35 98.2 12.84 98.2 14.33C98.2 37.03 98.22 59.74 98.18 82.44C98.17 90.01 94.33 95.71 87.81 97.57C85.34 98.27 82.64 98.4 80.05 98.41C57.97 98.47 35.89 98.45 13.81 98.45C12.35 98.45 10.89 98.45 9.04 98.45ZM16.95 89.04C17.8 89.08 18.86 89.18 19.92 89.18C40.36 89.18 60.8 89.2 81.23 89.18C87.37 89.18 89.16 87.35 89.16 81.13C89.16 60.82 89.16 40.5 89.16 20.19C89.16 19.02 89.04 17.84 89 17.07C65.02 41.03 41.02 64.99 16.96 89.04H16.95Z" fill="#F6F6F6"/>
<path d="M87.3196 206.43C95.4896 197.81 103.54 189.31 111.56 180.85C104.71 169.38 106.13 157.2 115.47 148.77C123.41 141.6 134.98 140.77 143.93 146.34C153.69 152.41 157.11 162.78 153.56 176.17C159.02 179.84 164.55 183.63 170.17 187.27C170.73 187.63 172.1 187.44 172.68 186.98C181.89 179.75 191.53 179.38 201.39 184.89C209.37 176.84 217.25 168.9 225.26 160.81C219.13 145.11 221.44 134.09 232.61 127.05C242.37 120.9 255.29 122.58 262.99 130.99C270.75 139.47 271.5 152.09 264.78 161.29C258.88 169.37 246.57 175.32 233.09 167.93C225.01 175.99 217 183.97 208.7 192.25C211.95 197.83 213.43 204.33 211.49 211.32C210.12 216.28 207.44 220.38 203.48 223.66C195.65 230.12 184.64 230.87 175.9 225.53C166 219.48 162.77 209.79 166.04 195.58C160.75 192.01 155.42 188.35 149.99 184.84C149.28 184.38 147.73 184.3 147.13 184.76C138.09 191.82 128.57 192.49 118.33 186.96C110.16 195.57 102.02 204.14 93.9596 212.64C100.78 226.7 98.6696 238.78 88.2496 246.2C78.6396 253.04 65.7596 252.04 57.4196 243.81C49.1896 235.68 47.9396 222.83 54.4696 213.32C61.6696 202.83 73.5396 200.26 87.3096 206.42L87.3196 206.43ZM89.1396 226.85C89.1696 218.69 82.2496 211.78 74.1396 211.88C66.1296 211.98 59.4296 218.73 59.3896 226.74C59.3496 234.87 66.3096 241.82 74.3996 241.72C82.4196 241.62 89.0996 234.87 89.1296 226.85H89.1396ZM245.64 132.42C237.32 132.33 230.59 138.92 230.56 147.17C230.53 155.28 237 161.87 245.15 162.05C253.38 162.23 260.21 155.56 260.25 147.29C260.29 139.22 253.69 132.5 245.64 132.41V132.42ZM173.6 205.23C173.63 213.37 180.18 219.98 188.26 220.05C196.44 220.12 203.13 213.34 203.09 205.03C203.05 196.88 196.52 190.27 188.43 190.21C180.21 190.15 173.56 196.88 173.59 205.23H173.6ZM146.09 166.78C146.13 158.42 139.6 151.85 131.27 151.86C123.08 151.88 116.63 158.31 116.57 166.52C116.51 174.95 122.98 181.46 131.38 181.42C139.6 181.38 146.07 174.95 146.1 166.78H146.09Z" fill="#F6F6F6"/>
<path d="M268.82 265.46C268.82 286.66 268.82 307.87 268.82 329.07C268.82 335.52 266.76 337.61 260.39 337.63C250.29 337.66 240.18 337.66 230.08 337.63C224.27 337.61 221.84 335.26 221.83 329.49C221.8 286.83 221.8 244.17 221.83 201.51C221.83 196.03 224.39 193.43 229.85 193.37C240.2 193.27 250.56 193.27 260.91 193.37C266.5 193.42 268.8 195.87 268.81 201.47C268.83 222.8 268.81 244.13 268.82 265.46ZM259.7 202.87H231.29V328.35H259.7V202.87Z" fill="#F6F6F6"/>
<path d="M107.85 278.47C107.85 262.26 107.84 246.05 107.85 229.84C107.85 222.34 110.17 220.06 117.63 220.06C127.11 220.06 136.58 220.06 146.06 220.06C151.71 220.06 154.23 222.33 154.8 227.94C154.91 229.05 154.87 230.18 154.87 231.3C154.87 262.85 154.88 294.4 154.84 325.94C154.84 327.91 154.64 329.93 154.17 331.84C153.37 335.08 151.24 337.05 147.77 337.06C136.8 337.1 125.82 337.18 114.85 337.02C110.31 336.95 107.88 333.71 107.85 328.2C107.8 314.73 107.83 301.27 107.83 287.8C107.83 284.68 107.83 281.57 107.83 278.45L107.85 278.47ZM117.08 229.2V327.76H145.49V229.2H117.08Z" fill="#F6F6F6"/>
<path d="M164.8 291.89C164.8 280.05 164.78 268.22 164.8 256.38C164.81 249.66 167.39 247.08 173.99 247.07C183.83 247.07 193.67 247.04 203.52 247.07C209.03 247.09 211.81 249.78 211.82 255.32C211.86 279.86 211.86 304.41 211.82 328.95C211.82 334.3 209.12 337.04 203.82 337.09C193.6 337.17 183.39 337.16 173.17 337.09C167.51 337.05 164.83 334.31 164.81 328.5C164.75 316.29 164.79 304.08 164.79 291.87L164.8 291.89ZM202.58 327.78V256.19C194.12 256.19 185.92 256.34 177.73 256.12C174.52 256.03 173.81 257.15 173.83 260.16C173.95 281.46 173.89 302.77 173.89 324.07V327.78H202.58Z" fill="#F6F6F6"/>
<path d="M50.8298 305.56C50.8298 297.83 50.7998 290.1 50.8398 282.37C50.8698 276.72 53.1498 274.27 58.6798 274.22C69.0298 274.13 79.3798 274.14 89.7298 274.22C95.2298 274.26 97.8098 276.79 97.8298 282.26C97.8998 297.85 97.8998 313.43 97.8298 329.02C97.8098 334.59 95.3698 337.05 89.8298 337.1C79.4798 337.19 69.1298 337.19 58.7798 337.1C53.0698 337.05 50.8698 334.78 50.8298 329.12C50.7798 321.26 50.8198 313.41 50.8198 305.55L50.8298 305.56ZM88.3198 327.79V283.7H60.1598V327.79H88.3198Z" fill="#F6F6F6"/>
<path d="M198.78 70.3696C177.95 70.3696 157.13 70.3696 136.3 70.3696C135.18 70.3696 133.76 70.7596 133 70.2196C131.51 69.1896 129.35 67.6096 129.38 66.2996C129.42 64.6796 131.25 62.9596 132.62 61.5896C133.14 61.0696 134.53 61.3896 135.53 61.3896C177.93 61.3896 220.33 61.3896 262.73 61.3896C263.73 61.3896 265.09 61.0396 265.65 61.5496C267.08 62.8496 269.14 64.5696 269.1 66.0696C269.06 67.5196 266.86 69.1096 265.31 70.2196C264.56 70.7596 263.13 70.3496 262.01 70.3596C240.93 70.3596 219.86 70.3596 198.78 70.3596V70.3696Z" fill="#F6F6F6"/>
<path d="M199.13 98.8603C178.3 98.8603 157.48 98.8603 136.65 98.8603C135.53 98.8603 134.13 99.2503 133.34 98.7303C131.75 97.6703 129.72 96.3303 129.29 94.7203C128.65 92.3403 130.43 90.5203 132.94 89.9603C133.89 89.7503 134.93 89.8603 135.92 89.8603C178.07 89.8603 220.22 89.8603 262.37 89.8603C263.49 89.8603 264.99 89.4903 265.65 90.0603C267.12 91.3103 269.14 93.0803 269.1 94.5903C269.06 96.0303 266.84 97.6103 265.28 98.7203C264.53 99.2603 263.1 98.8703 261.98 98.8703C241.03 98.8703 220.08 98.8703 199.13 98.8703V98.8603Z" fill="#F6F6F6"/>
<path d="M168.38 41.8804C157.29 41.8804 146.2 41.8804 135.11 41.8804C131.19 41.8804 129.05 40.2404 129.09 37.3704C129.13 34.5304 131.29 32.9404 135.21 32.9304C157.39 32.9204 179.57 32.9204 201.75 32.9304C205.69 32.9304 207.78 34.5504 207.74 37.4704C207.7 40.3604 205.64 41.8704 201.64 41.8804C190.55 41.8904 179.46 41.8804 168.37 41.8804H168.38Z" fill="#F6F6F6"/>
</g>
<defs>
<clipPath id="clip0_1350_6760">
<rect width="319.64" height="368.48" fill="white"/>
</clipPath>
</defs>
</svg>
