<svg width="33" height="36" viewBox="0 0 33 36" fill="none" xmlns="http://www.w3.org/2000/svg">
<path d="M2.4403 36C1.70949 35.7681 1.05752 35.4151 0.606792 34.7599C0.276631 34.2792 0.0642523 33.7572 0.0586878 33.162C0.056833 33.0099 0.0484876 32.8578 0.0484876 32.7058C0.0484876 23.9703 0.0521966 15.2357 0.041995 6.50022C0.0410676 5.55204 0.271994 4.72402 0.951792 4.04996C1.48598 3.51955 2.1361 3.25199 2.87155 3.17595C2.9615 3.16656 3.05239 3.15717 3.1405 3.14872C3.19985 2.82765 3.23417 2.5141 3.31578 2.21462C3.68118 0.885284 4.8284 0.00375516 6.18428 0.00281636C10.059 0.000938771 13.9347 0.00375518 17.8095 0C18.5774 0 19.247 0.25723 19.7849 0.797038C21.879 2.89994 23.9647 5.01129 26.0412 7.13109C26.5847 7.68592 26.8268 8.37969 26.8268 9.16828C26.823 16.0065 26.8249 22.8447 26.824 29.6828C26.824 31.4206 25.6953 32.672 23.9787 32.8438C23.8998 32.8513 23.821 32.8616 23.7245 32.8719C23.6837 33.1442 23.667 33.4136 23.6003 33.669C23.3156 34.7683 22.646 35.5165 21.5766 35.8845C21.4681 35.9221 21.3606 35.9606 21.253 35.9981H2.4403V36ZM4.38138 16.3942C4.38138 20.8093 4.39993 25.2245 4.36933 29.6397C4.36098 30.8817 5.31437 31.6553 6.33267 31.6506C12.117 31.6243 17.9022 31.6384 23.6865 31.6355C23.8813 31.6355 24.0835 31.6318 24.2699 31.5839C25.1759 31.3483 25.673 30.6216 25.673 29.5477C25.673 22.8484 25.673 16.1501 25.673 9.45086C25.673 9.33351 25.6684 9.2171 25.6628 9.09975C25.6508 8.85472 25.5608 8.74113 25.2798 8.74488C23.9147 8.76178 22.5495 8.75615 21.1843 8.75145C19.5104 8.74676 18.1869 7.41179 18.1823 5.72478C18.1786 4.3776 18.1823 3.03137 18.1814 1.6842C18.1814 1.19509 18.1628 1.16692 17.6824 1.16598C13.8763 1.16317 10.0692 1.16129 6.26312 1.16786C5.72336 1.16786 5.24574 1.35938 4.86549 1.76587C4.4732 2.18646 4.37582 2.6934 4.37675 3.25387C4.38417 7.63429 4.38046 12.0138 4.38046 16.3942H4.38138ZM22.4512 32.8485H21.9522C16.7819 32.8485 11.6115 32.8503 6.44025 32.8438C6.11936 32.8438 5.79013 32.8175 5.48037 32.7405C4.09388 32.3941 3.19058 31.1859 3.18965 29.695C3.1878 21.428 3.18965 13.1619 3.18965 4.89488C3.18965 4.73529 3.18965 4.57569 3.18965 4.3654C2.9411 4.39544 2.74356 4.39544 2.56086 4.44708C1.71598 4.68271 1.20961 5.39714 1.20961 6.34063C1.20961 15.1456 1.20961 23.9515 1.20961 32.7565C1.20961 34.0811 1.96824 34.8556 3.27219 34.8556C8.99807 34.8565 14.7239 34.8565 20.4498 34.8528C20.6678 34.8528 20.8894 34.8274 21.1027 34.7833C21.956 34.6049 22.5801 33.7328 22.453 32.8475L22.4512 32.8485ZM24.6705 7.55918C22.8936 5.76045 21.1055 3.95045 19.3388 2.16205C19.3388 3.3177 19.3017 4.53344 19.3499 5.74637C19.3916 6.79406 20.0408 7.48783 21.0749 7.54416C22.2824 7.60988 23.4955 7.55918 24.6696 7.55918H24.6705Z" fill="black"/>
<path d="M32.3233 19.2658C32.3233 21.5499 32.3196 23.833 32.3279 26.1171C32.3289 26.4832 32.2482 26.7996 32.0321 27.0991C31.6713 27.6004 31.3402 28.1233 30.9887 28.6312C30.5093 29.325 29.8239 29.3259 29.3509 28.6349C28.9818 28.0961 28.5978 27.5666 28.264 27.0061C28.1165 26.7583 28.0006 26.4447 27.9997 26.1603C27.9839 21.5696 27.9867 16.9789 27.9895 12.3881C27.9895 11.6061 28.3484 11.255 29.1209 11.2531C29.8378 11.2513 30.5556 11.2494 31.2725 11.2531C31.9709 11.2569 32.3186 11.6005 32.3205 12.3093C32.3251 14.6281 32.3224 16.9469 32.3224 19.2658H32.3233ZM29.2081 15.3735V25.6327H31.1316V15.3735H29.2081ZM29.2025 14.1775C29.8248 14.1775 30.4119 14.1812 30.998 14.1709C31.0527 14.17 31.151 14.0808 31.152 14.0301C31.1631 13.5203 31.1594 13.0106 31.1594 12.4924H29.2035V14.1775H29.2025ZM30.7337 26.8991H29.6004C29.8063 27.2005 29.9769 27.4521 30.1717 27.7365C30.3683 27.4446 30.5343 27.1967 30.7346 26.8991H30.7337Z" fill="black"/>
<path d="M11.2417 8.75062C9.8663 8.75062 8.49001 8.75156 7.11465 8.75062C6.36529 8.75062 5.9665 8.34318 5.96465 7.57713C5.96279 6.57074 5.96186 5.56435 5.96465 4.55796C5.9665 3.89423 6.29573 3.51402 6.94307 3.42295C7.0794 3.40418 7.21944 3.39948 7.35763 3.39854C9.97017 3.39761 12.5836 3.39667 15.1962 3.39854C15.3687 3.39854 15.543 3.4145 15.7127 3.44173C16.1848 3.51871 16.5363 3.84823 16.5483 4.32983C16.5762 5.48737 16.5817 6.64584 16.5521 7.80244C16.5372 8.38355 16.0958 8.74593 15.5078 8.7478C14.086 8.75156 12.6634 8.74874 11.2417 8.74968V8.75062ZM15.4048 4.63682C15.3149 4.62086 15.2704 4.60584 15.2268 4.60584C12.6254 4.60396 10.024 4.60584 7.42255 4.59926C7.16937 4.59926 7.14247 4.73164 7.1434 4.92972C7.14618 5.66668 7.15916 6.40457 7.13783 7.14152C7.12856 7.47386 7.22408 7.58745 7.56537 7.5837C9.29964 7.56774 11.0339 7.57619 12.7682 7.57619C13.5426 7.57619 14.3179 7.57713 15.0923 7.57525C15.2379 7.57525 15.4076 7.60623 15.4067 7.36496C15.4039 6.46465 15.4058 5.56529 15.4058 4.63776L15.4048 4.63682Z" fill="black"/>
<path d="M17.9563 27.1999C19.749 27.1999 21.5407 27.199 23.3334 27.1999C23.7805 27.1999 24.0244 27.3886 24.0475 27.7416C24.0689 28.0683 23.9214 28.2833 23.607 28.3593C23.4633 28.3941 23.3093 28.4016 23.16 28.4016C19.6674 28.4035 16.1756 28.4035 12.683 28.4016C12.5337 28.4016 12.3806 28.3941 12.236 28.3622C11.9308 28.2955 11.7407 28.0495 11.7695 27.7595C11.801 27.4374 11.9902 27.2544 12.3018 27.2046C12.4038 27.1887 12.5095 27.1981 12.6134 27.1981C14.3941 27.1981 16.1747 27.1981 17.9563 27.1981V27.1999Z" fill="black"/>
<path d="M17.9215 17.0801C19.6901 17.0801 21.4596 17.0801 23.2282 17.0801C23.3442 17.0801 23.4638 17.0679 23.5742 17.0932C23.8635 17.1599 24.0406 17.3383 24.0481 17.6546C24.0555 17.9691 23.9015 18.1681 23.6057 18.2357C23.4499 18.2714 23.2848 18.2752 23.1234 18.2752C19.6549 18.277 16.1863 18.277 12.7178 18.2752C12.5564 18.2752 12.3932 18.2677 12.2346 18.2395C11.9286 18.1841 11.7811 17.9719 11.7681 17.6715C11.7551 17.3843 11.9759 17.1336 12.268 17.0895C12.3811 17.0726 12.4989 17.0801 12.6139 17.0801C14.3825 17.0801 16.152 17.0801 17.9206 17.0801H17.9215Z" fill="black"/>
<path d="M17.9207 22.1402C19.6902 22.1402 21.4588 22.1402 23.2283 22.1402C23.3322 22.1402 23.4379 22.1336 23.5399 22.1468C23.8432 22.1871 24.0407 22.4125 24.0491 22.7138C24.0583 23.0236 23.8858 23.248 23.5752 23.3043C23.4286 23.3306 23.2765 23.3353 23.1263 23.3353C19.6577 23.3372 16.1892 23.3372 12.7197 23.3353C12.5584 23.3353 12.3951 23.3297 12.2365 23.3015C11.9305 23.247 11.7821 23.0349 11.7682 22.7345C11.7543 22.4472 11.975 22.1965 12.2672 22.1496C12.3803 22.1318 12.4981 22.1393 12.6131 22.1393C14.3826 22.1393 16.1512 22.1393 17.9207 22.1393V22.1402Z" fill="black"/>
<path d="M17.8864 12.0204C19.7134 12.0204 21.5395 12.0232 23.3665 12.0186C23.6911 12.0186 23.9387 12.1246 24.0343 12.4542C24.1344 12.7996 23.9304 13.1169 23.5733 13.1817C23.4157 13.2099 23.2515 13.2174 23.0901 13.2174C19.6337 13.2193 16.1762 13.2193 12.7198 13.2174C12.5584 13.2174 12.3952 13.208 12.2375 13.1798C11.9314 13.1254 11.784 12.9142 11.7701 12.6128C11.7571 12.3237 11.976 12.0739 12.2681 12.0298C12.3701 12.0148 12.4758 12.0214 12.5797 12.0214C14.3483 12.0214 16.1178 12.0214 17.8864 12.0214V12.0204Z" fill="black"/>
<path d="M7.83357 25.9316C8.8593 25.9335 9.67728 26.7672 9.67542 27.8045C9.67264 28.8269 8.82776 29.684 7.81966 29.6859C6.79486 29.6878 5.95833 28.826 5.96389 27.7736C5.97039 26.7428 6.79579 25.9298 7.83357 25.9316ZM7.8141 28.4701C8.21196 28.472 8.48184 28.1951 8.47998 27.7886C8.47813 27.4027 8.17115 27.0892 7.80482 27.0986C7.44777 27.108 7.16119 27.4093 7.15563 27.7811C7.14914 28.1876 7.41809 28.4692 7.8141 28.4701Z" fill="black"/>
<path d="M5.96485 12.6011C5.96763 11.5665 6.79025 10.7423 7.82154 10.7441C8.84912 10.7451 9.6736 11.574 9.67545 12.6077C9.67731 13.645 8.8111 14.52 7.79836 14.5031C6.78469 14.4862 5.96207 13.6338 5.96485 12.602V12.6011ZM8.48001 12.6255C8.4865 12.234 8.199 11.9223 7.82618 11.9158C7.45707 11.9092 7.15473 12.2218 7.15566 12.6095C7.15566 12.9973 7.41904 13.278 7.79279 13.2873C8.18973 13.2977 8.47352 13.0245 8.48001 12.6255Z" fill="black"/>
<path d="M5.96486 17.6834C5.96115 16.6413 6.77264 15.8133 7.80207 15.8086C8.83614 15.8039 9.66618 16.6197 9.67546 17.6496C9.68473 18.6926 8.838 19.5657 7.81876 19.5647C6.81066 19.5647 5.96857 18.7095 5.96486 17.6834ZM7.80021 18.349C8.199 18.3574 8.47723 18.0843 8.48094 17.6815C8.48465 17.2928 8.18973 16.9774 7.82062 16.9765C7.46542 16.9755 7.16772 17.2741 7.15659 17.643C7.1436 18.0486 7.4107 18.3415 7.80021 18.349Z" fill="black"/>
<path d="M5.9648 22.7326C5.9648 21.6952 6.78278 20.87 7.81314 20.8682C8.8435 20.8663 9.67076 21.6906 9.6754 22.7214C9.68003 23.7634 8.82588 24.6337 7.80665 24.6243C6.79576 24.6158 5.96479 23.7615 5.96387 22.7326H5.9648ZM8.47995 22.7345C8.48088 22.3468 8.17947 22.0323 7.81221 22.037C7.44217 22.0417 7.14911 22.358 7.15467 22.7467C7.16024 23.1344 7.42733 23.4048 7.80665 23.4095C8.20544 23.4142 8.47903 23.1401 8.47995 22.7354V22.7345Z" fill="black"/>
</svg>
