<svg width="32" height="36" viewBox="0 0 32 36" fill="none" xmlns="http://www.w3.org/2000/svg">
<path d="M17.7027 0C18.194 0.194234 18.5898 0.491684 18.7854 1.01246C19.1571 2.00427 18.5194 3.07865 17.4756 3.17999C17.0168 3.22409 16.5524 3.21565 16.0898 3.21283C15.8572 3.2119 15.7431 3.28509 15.7663 3.53562C15.7802 3.68669 15.7895 3.84339 15.7645 3.99071C15.7024 4.35572 15.8813 4.45424 16.202 4.47488C19.0283 4.65974 21.5783 5.62621 23.8837 7.27955C23.9393 7.31989 23.9986 7.35555 24.083 7.40997C24.2239 7.27392 24.3583 7.13317 24.5047 7.00649C24.654 6.877 24.8143 6.76159 24.9932 6.62178C24.7949 6.40878 24.6679 6.27835 24.5464 6.14135C24.2813 5.84203 24.2748 5.4545 24.5251 5.19552C24.7865 4.92528 25.1629 4.90839 25.4539 5.19364C26.0527 5.77916 26.6414 6.375 27.2207 6.98022C27.5062 7.27861 27.496 7.64925 27.229 7.91949C26.9769 8.17565 26.583 8.17846 26.2947 7.90823C26.1677 7.79 26.0685 7.64174 25.9341 7.48035C25.6718 7.79187 25.4502 8.05554 25.2287 8.31828C25.1712 8.33235 25.1137 8.34736 25.0563 8.36144C25.1675 8.42149 25.2991 8.4609 25.3881 8.54629C27.9048 10.9587 29.463 13.8844 30.0081 17.3591C30.4178 19.9676 30.1443 22.503 29.248 24.9755C29.1719 25.1866 29.1868 25.3208 29.3555 25.4934C31.0296 27.2134 31.6024 29.273 30.9341 31.5804C30.2611 33.9018 28.6751 35.3693 26.3299 35.8601C24.2266 36.3011 22.3755 35.6902 20.8405 34.1608C20.6542 33.975 20.5123 33.944 20.2741 34.0331C18.1412 34.8345 15.935 35.1376 13.6723 34.9105C6.93799 34.2349 1.64508 29.2486 0.353826 22.8999C-0.707538 17.6809 0.633767 13.0934 4.17752 9.16089C4.25446 9.07551 4.33139 8.98918 4.39164 8.92256C3.94114 8.46278 3.50362 8.01613 3.03829 7.54134C2.93725 7.63799 2.81489 7.75528 2.69068 7.87163C2.37273 8.17002 1.96488 8.18691 1.70162 7.91386C1.44022 7.64174 1.44948 7.25515 1.74982 6.94456C2.30784 6.36749 2.87236 5.79605 3.44244 5.23211C3.76038 4.91778 4.11541 4.90839 4.39813 5.18051C4.68086 5.45356 4.67159 5.84672 4.36477 6.17607C4.25446 6.2943 4.1256 6.39376 4.03291 6.47728C4.52883 6.97271 4.99138 7.43437 5.4734 7.91573C5.82194 7.65769 6.22238 7.34241 6.64136 7.05622C8.85957 5.53989 11.2975 4.65223 13.9754 4.48145C14.3156 4.45987 14.4547 4.35853 14.4398 3.98132C14.4093 3.21846 14.4315 3.2194 13.6825 3.21659C13.3933 3.21565 13.1032 3.22222 12.8167 3.19594C12.0121 3.12275 11.4319 2.58885 11.3141 1.83537C11.1964 1.08095 11.6228 0.368763 12.3746 0.060053C12.4172 0.0431631 12.4571 0.0215815 12.4988 0.00187666C14.2331 0.00187666 15.9684 0.00187666 17.7027 0.00187666V0ZM28.017 24.4078C29.9673 19.4046 28.7307 12.2142 22.7787 8.13342C16.9918 4.16524 9.20903 5.24994 4.64934 10.6191C0.128573 15.9422 0.248158 23.933 4.90055 29.0628C9.51864 34.1542 16.1047 34.3522 19.7337 32.7486C19.5233 32.1077 19.3128 31.4696 19.0959 30.81C18.9986 30.841 18.8902 30.8747 18.7826 30.9104C15.6115 31.9426 12.5359 31.7023 9.5965 30.1222C5.38441 27.858 2.98175 23.2386 3.47025 18.4447C3.51845 17.9718 3.79376 17.7147 4.21274 17.7494C4.60763 17.7822 4.85234 18.12 4.7995 18.5845C4.67622 19.6617 4.73184 20.7286 4.94411 21.7908C6.21404 28.1245 12.8473 31.8168 18.7947 29.5029C19.0199 29.4156 19.1228 29.2983 19.1469 29.0544C19.4176 26.3801 21.7266 24.0512 24.361 23.7979C24.5928 23.7753 24.7003 23.6759 24.7782 23.4629C25.4743 21.5665 25.6532 19.6289 25.262 17.6415C23.9903 11.1811 17.2087 7.48222 11.1955 9.97818C10.6949 10.1855 10.2203 10.4577 9.73832 10.7082C9.44726 10.8602 9.17752 10.8424 8.94022 10.6172C8.73721 10.4248 8.65564 10.164 8.78819 9.91531C8.87996 9.74172 9.0431 9.58033 9.21366 9.48086C11.8138 7.96734 14.5807 7.52163 17.5266 8.1231C23.8382 9.41236 27.9984 15.9854 26.4884 22.3162C26.3707 22.8089 26.2252 23.294 26.1 23.7556C26.7544 23.978 27.3746 24.1891 28.0188 24.4087L28.017 24.4078ZM20.4131 29.8379C20.3307 32.148 22.1734 34.613 25.1211 34.6628C27.7074 34.7069 29.8607 32.5149 29.8764 29.867C29.8922 27.2443 27.7732 25.0918 25.1675 25.0824C22.5118 25.0731 20.4224 27.1636 20.4141 29.8379H20.4131ZM15.1035 1.87947C15.7719 1.87947 16.4411 1.87947 17.1095 1.87947C17.3273 1.87947 17.5563 1.87572 17.547 1.57358C17.5387 1.29677 17.3134 1.29114 17.115 1.2902C15.7663 1.28739 14.4176 1.28739 13.068 1.2902C12.8668 1.2902 12.6471 1.30709 12.6462 1.58484C12.6462 1.8607 12.852 1.87947 13.0624 1.87947C13.7428 1.87759 14.4232 1.87947 15.1026 1.87947H15.1035Z" fill="black"/>
<path d="M14.7848 17.1221C16.0065 17.1221 17.0179 18.142 17.0179 19.375C17.0179 20.5826 16.0167 21.627 14.82 21.6317C14.5392 21.6326 14.2435 21.5622 13.9821 21.4562C13.7568 21.3643 13.628 21.414 13.4676 21.5622C12.4684 22.4837 11.4691 23.4051 10.4522 24.3059C10.2844 24.4542 10.037 24.5593 9.81634 24.5837C9.53825 24.6137 9.35007 24.4054 9.25831 24.1436C9.15634 23.8546 9.26572 23.6153 9.47799 23.4211C10.1788 22.7764 10.8823 22.1337 11.585 21.4919C11.8937 21.2094 12.194 20.9176 12.5156 20.6511C12.7214 20.4813 12.7705 20.3255 12.6816 20.0562C12.2014 18.6056 13.2748 17.123 14.7848 17.1239V17.1221ZM13.8931 19.3891C13.8977 19.907 14.2833 20.2899 14.7959 20.2842C15.3021 20.2786 15.6821 19.8836 15.6784 19.3647C15.6747 18.8486 15.2909 18.4723 14.7718 18.4761C14.2509 18.4798 13.8894 18.857 13.8931 19.3891Z" fill="black"/>
<path d="M7.47073 12.3206C7.36042 12.5599 7.30944 12.7278 7.21581 12.8657C6.86913 13.3753 6.50483 13.8735 6.15351 14.3802C5.90416 14.7396 5.55934 14.84 5.22934 14.6392C4.90769 14.4431 4.80202 14.0471 5.03468 13.6924C5.41659 13.1088 5.82353 12.5411 6.24344 11.9837C6.42419 11.7435 6.70969 11.6272 6.98222 11.7979C7.17503 11.919 7.30758 12.1395 7.47165 12.3206H7.47073Z" fill="black"/>
<path d="M24.4854 28.587C24.4854 27.9799 24.4826 27.3719 24.4863 26.7648C24.4891 26.3172 24.7218 26.0479 25.1046 26.0329C25.5013 26.0179 25.7813 26.2487 25.7887 26.6972C25.8091 27.9584 25.8091 29.2195 25.7878 30.4806C25.7803 30.9282 25.4958 31.1628 25.1027 31.1449C24.7218 31.128 24.49 30.8559 24.4863 30.4093C24.4826 29.8022 24.4854 29.1941 24.4854 28.587Z" fill="black"/>
<path d="M25.7832 32.4138C25.7767 32.7853 25.4708 33.0818 25.1139 33.065C24.7645 33.0481 24.4882 32.7553 24.4873 32.4016C24.4873 32.0347 24.7849 31.7307 25.1427 31.7344C25.5051 31.7382 25.7897 32.0403 25.7832 32.4138Z" fill="black"/>
</svg>
